<mxfile host="app.diagrams.net" agent="Mozilla/5.0 (Windows NT 10.0; Win64; x64) AppleWebKit/537.36 (KHTML, like Gecko) Chrome/135.0.0.0 Safari/537.36" version="26.2.13">
  <diagram name="第 1 页" id="5hclALBQlh2AVa7bqb6c">
    <mxGraphModel dx="616" dy="-802" grid="1" gridSize="10" guides="1" tooltips="1" connect="1" arrows="1" fold="1" page="1" pageScale="1" pageWidth="827" pageHeight="1169" math="0" shadow="0">
      <root>
        <mxCell id="0" />
        <mxCell id="1" parent="0" />
        <mxCell id="CXc2uvA6YaHK-9A4Du0e-35" value="ChargingPile" style="shape=umlLifeline;perimeter=lifelinePerimeter;whiteSpace=wrap;container=1;dropTarget=0;collapsible=0;recursiveResize=0;outlineConnect=0;portConstraint=eastwest;newEdgeStyle={&quot;edgeStyle&quot;:&quot;elbowEdgeStyle&quot;,&quot;elbow&quot;:&quot;vertical&quot;,&quot;curved&quot;:0,&quot;rounded&quot;:0};size=65;" vertex="1" parent="1">
          <mxGeometry x="124" y="1260" width="150" height="700" as="geometry" />
        </mxCell>
        <mxCell id="CXc2uvA6YaHK-9A4Du0e-36" value="Server" style="shape=umlLifeline;perimeter=lifelinePerimeter;whiteSpace=wrap;container=1;dropTarget=0;collapsible=0;recursiveResize=0;outlineConnect=0;portConstraint=eastwest;newEdgeStyle={&quot;edgeStyle&quot;:&quot;elbowEdgeStyle&quot;,&quot;elbow&quot;:&quot;vertical&quot;,&quot;curved&quot;:0,&quot;rounded&quot;:0};size=65;" vertex="1" parent="1">
          <mxGeometry x="324" y="1260" width="150" height="700" as="geometry" />
        </mxCell>
        <mxCell id="CXc2uvA6YaHK-9A4Du0e-37" value="System" style="shape=umlLifeline;perimeter=lifelinePerimeter;whiteSpace=wrap;container=1;dropTarget=0;collapsible=0;recursiveResize=0;outlineConnect=0;portConstraint=eastwest;newEdgeStyle={&quot;edgeStyle&quot;:&quot;elbowEdgeStyle&quot;,&quot;elbow&quot;:&quot;vertical&quot;,&quot;curved&quot;:0,&quot;rounded&quot;:0};size=65;" vertex="1" parent="1">
          <mxGeometry x="524" y="1260" width="150" height="700" as="geometry" />
        </mxCell>
        <mxCell id="CXc2uvA6YaHK-9A4Du0e-38" value="" style="points=[];perimeter=orthogonalPerimeter;outlineConnect=0;targetShapes=umlLifeline;portConstraint=eastwest;newEdgeStyle={&quot;edgeStyle&quot;:&quot;elbowEdgeStyle&quot;,&quot;elbow&quot;:&quot;vertical&quot;,&quot;curved&quot;:0,&quot;rounded&quot;:0}" vertex="1" parent="CXc2uvA6YaHK-9A4Du0e-37">
          <mxGeometry x="75" y="107" width="10" height="538" as="geometry" />
        </mxCell>
        <mxCell id="CXc2uvA6YaHK-9A4Du0e-39" value="loop" style="shape=umlFrame;pointerEvents=0;dropTarget=0;strokeColor=#B3B3B3;height=20;width=40" vertex="1" parent="1">
          <mxGeometry x="188" y="1633" width="431" height="98" as="geometry" />
        </mxCell>
        <mxCell id="CXc2uvA6YaHK-9A4Du0e-40" value="          [最多3次重试]" style="text;strokeColor=none;fillColor=none;align=center;verticalAlign=middle;whiteSpace=wrap;" vertex="1" parent="CXc2uvA6YaHK-9A4Du0e-39">
          <mxGeometry x="40" width="391" height="20" as="geometry" />
        </mxCell>
        <mxCell id="CXc2uvA6YaHK-9A4Du0e-41" value="alt" style="shape=umlFrame;pointerEvents=0;dropTarget=0;strokeColor=#B3B3B3;height=20;width=30" vertex="1" parent="1">
          <mxGeometry x="140" y="1407" width="554" height="446" as="geometry" />
        </mxCell>
        <mxCell id="CXc2uvA6YaHK-9A4Du0e-42" value="[正常上报]" style="text;strokeColor=none;fillColor=none;align=center;verticalAlign=middle;whiteSpace=wrap;" vertex="1" parent="CXc2uvA6YaHK-9A4Du0e-41">
          <mxGeometry x="32.2093023255814" width="521.7906976744185" height="20" as="geometry" />
        </mxCell>
        <mxCell id="CXc2uvA6YaHK-9A4Du0e-43" value="         [通信失败]" style="shape=line;dashed=1;whiteSpace=wrap;verticalAlign=top;labelPosition=center;verticalLabelPosition=middle;align=center;strokeColor=#B3B3B3;" vertex="1" parent="CXc2uvA6YaHK-9A4Du0e-41">
          <mxGeometry y="185" width="554" height="3" as="geometry" />
        </mxCell>
        <mxCell id="CXc2uvA6YaHK-9A4Du0e-46" value="状态变化信号" style="verticalAlign=bottom;edgeStyle=elbowEdgeStyle;elbow=vertical;curved=0;rounded=0;endArrow=block;" edge="1" parent="1" source="CXc2uvA6YaHK-9A4Du0e-35" target="CXc2uvA6YaHK-9A4Du0e-38">
          <mxGeometry relative="1" as="geometry">
            <Array as="points">
              <mxPoint x="406" y="1367" />
            </Array>
          </mxGeometry>
        </mxCell>
        <mxCell id="CXc2uvA6YaHK-9A4Du0e-47" value="生成状态报告" style="curved=1;endArrow=block;rounded=0;" edge="1" parent="1" source="CXc2uvA6YaHK-9A4Du0e-38" target="CXc2uvA6YaHK-9A4Du0e-38">
          <mxGeometry relative="1" as="geometry">
            <Array as="points">
              <mxPoint x="659" y="1485" />
              <mxPoint x="659" y="1515" />
            </Array>
          </mxGeometry>
        </mxCell>
        <mxCell id="CXc2uvA6YaHK-9A4Du0e-48" value="推送状态数据" style="verticalAlign=bottom;edgeStyle=elbowEdgeStyle;elbow=vertical;curved=0;rounded=0;dashed=1;dashPattern=2 3;endArrow=block;" edge="1" parent="1" source="CXc2uvA6YaHK-9A4Du0e-38" target="CXc2uvA6YaHK-9A4Du0e-36">
          <mxGeometry relative="1" as="geometry">
            <Array as="points">
              <mxPoint x="509" y="1567" />
            </Array>
          </mxGeometry>
        </mxCell>
        <mxCell id="CXc2uvA6YaHK-9A4Du0e-49" value="重新上报" style="verticalAlign=bottom;edgeStyle=elbowEdgeStyle;elbow=vertical;curved=0;rounded=0;endArrow=block;" edge="1" parent="1" source="CXc2uvA6YaHK-9A4Du0e-35" target="CXc2uvA6YaHK-9A4Du0e-38">
          <mxGeometry relative="1" as="geometry">
            <Array as="points">
              <mxPoint x="406" y="1711" />
            </Array>
          </mxGeometry>
        </mxCell>
        <mxCell id="CXc2uvA6YaHK-9A4Du0e-50" value="记录错误日志" style="curved=1;endArrow=block;rounded=0;" edge="1" parent="1" source="CXc2uvA6YaHK-9A4Du0e-38" target="CXc2uvA6YaHK-9A4Du0e-38">
          <mxGeometry relative="1" as="geometry">
            <Array as="points">
              <mxPoint x="659" y="1773" />
              <mxPoint x="659" y="1803" />
            </Array>
          </mxGeometry>
        </mxCell>
        <mxCell id="CXc2uvA6YaHK-9A4Du0e-51" value="确认接收" style="verticalAlign=bottom;edgeStyle=elbowEdgeStyle;elbow=vertical;curved=0;rounded=0;dashed=1;dashPattern=2 3;endArrow=block;" edge="1" parent="1" source="CXc2uvA6YaHK-9A4Du0e-38" target="CXc2uvA6YaHK-9A4Du0e-35">
          <mxGeometry relative="1" as="geometry">
            <Array as="points">
              <mxPoint x="409" y="1905" />
            </Array>
          </mxGeometry>
        </mxCell>
      </root>
    </mxGraphModel>
  </diagram>
</mxfile>
